<mxfile host="app.diagrams.net" modified="2023-09-18T09:08:08.954Z" agent="Mozilla/5.0 (Windows NT 10.0; Win64; x64) AppleWebKit/537.36 (KHTML, like Gecko) Chrome/116.0.0.0 Safari/537.36" etag="2iwVNgWNFhJdrvlbqOVm" version="21.7.5" type="onedrive" pages="2">
  <diagram name="Page-1" id="q962I6aiMkmAbZw1WeMZ">
    <mxGraphModel grid="1" page="1" gridSize="10" guides="1" tooltips="1" connect="1" arrows="1" fold="1" pageScale="1" pageWidth="1169" pageHeight="827" math="0" shadow="0">
      <root>
        <mxCell id="0" />
        <mxCell id="1" parent="0" />
        <mxCell id="uY25hScXqDtO3a73gOTt-12" style="edgeStyle=orthogonalEdgeStyle;rounded=0;orthogonalLoop=1;jettySize=auto;html=1;exitX=0.5;exitY=0;exitDx=0;exitDy=0;endArrow=none;endFill=0;entryX=1;entryY=0.5;entryDx=0;entryDy=0;" edge="1" parent="1" source="zwO2DJE7-MWnhaOdCRVx-1" target="zwO2DJE7-MWnhaOdCRVx-11">
          <mxGeometry relative="1" as="geometry">
            <mxPoint x="1230" y="-570" as="targetPoint" />
          </mxGeometry>
        </mxCell>
        <mxCell id="zwO2DJE7-MWnhaOdCRVx-1" value="&lt;font style=&quot;vertical-align: inherit;&quot;&gt;&lt;font style=&quot;vertical-align: inherit;&quot;&gt;Etudiant&lt;/font&gt;&lt;/font&gt;" style="swimlane;fontStyle=0;childLayout=stackLayout;horizontal=1;startSize=30;horizontalStack=0;resizeParent=1;resizeParentMax=0;resizeLast=0;collapsible=1;marginBottom=0;whiteSpace=wrap;html=1;" vertex="1" parent="1">
          <mxGeometry x="1130" y="-480" width="190" height="60" as="geometry" />
        </mxCell>
        <mxCell id="zwO2DJE7-MWnhaOdCRVx-14" value="domaine_etude" style="text;strokeColor=none;fillColor=none;align=left;verticalAlign=middle;spacingLeft=4;spacingRight=4;overflow=hidden;points=[[0,0.5],[1,0.5]];portConstraint=eastwest;rotatable=0;whiteSpace=wrap;html=1;" vertex="1" parent="zwO2DJE7-MWnhaOdCRVx-1">
          <mxGeometry y="30" width="190" height="30" as="geometry" />
        </mxCell>
        <mxCell id="p0FIipzDam_MGdTjeUwP-6" style="edgeStyle=orthogonalEdgeStyle;rounded=0;orthogonalLoop=1;jettySize=auto;html=1;exitX=0;exitY=0.25;exitDx=0;exitDy=0;entryX=0.5;entryY=1;entryDx=0;entryDy=0;endArrow=none;endFill=0;" edge="1" parent="1" source="vYdjHVclCOwmGXo7qv9D-1" target="p0FIipzDam_MGdTjeUwP-5">
          <mxGeometry relative="1" as="geometry">
            <Array as="points">
              <mxPoint x="760" y="-450" />
              <mxPoint x="760" y="100" />
              <mxPoint x="1870" y="100" />
              <mxPoint x="1870" y="-230" />
            </Array>
          </mxGeometry>
        </mxCell>
        <mxCell id="vYdjHVclCOwmGXo7qv9D-1" value="&lt;font style=&quot;vertical-align: inherit;&quot;&gt;&lt;font style=&quot;vertical-align: inherit;&quot;&gt;&lt;font style=&quot;vertical-align: inherit;&quot;&gt;&lt;font style=&quot;vertical-align: inherit;&quot;&gt;RepresentantHopital&lt;/font&gt;&lt;/font&gt;&lt;/font&gt;&lt;/font&gt;" style="swimlane;fontStyle=0;childLayout=stackLayout;horizontal=1;startSize=30;horizontalStack=0;resizeParent=1;resizeParentMax=0;resizeLast=0;collapsible=1;marginBottom=0;whiteSpace=wrap;html=1;" vertex="1" parent="1">
          <mxGeometry x="870" y="-480" width="150" height="120" as="geometry" />
        </mxCell>
        <mxCell id="zwO2DJE7-MWnhaOdCRVx-15" value="&lt;font style=&quot;vertical-align: inherit;&quot;&gt;&lt;font style=&quot;vertical-align: inherit;&quot;&gt;nom_hopital&lt;br&gt;&lt;/font&gt;&lt;/font&gt;" style="text;strokeColor=none;fillColor=none;align=left;verticalAlign=middle;spacingLeft=4;spacingRight=4;overflow=hidden;points=[[0,0.5],[1,0.5]];portConstraint=eastwest;rotatable=0;whiteSpace=wrap;html=1;" vertex="1" parent="vYdjHVclCOwmGXo7qv9D-1">
          <mxGeometry y="30" width="150" height="30" as="geometry" />
        </mxCell>
        <mxCell id="qOWL5mDbAUGZzgBeI54C-1" value="adresse" style="text;strokeColor=none;fillColor=none;align=left;verticalAlign=middle;spacingLeft=4;spacingRight=4;overflow=hidden;points=[[0,0.5],[1,0.5]];portConstraint=eastwest;rotatable=0;whiteSpace=wrap;html=1;" vertex="1" parent="vYdjHVclCOwmGXo7qv9D-1">
          <mxGeometry y="60" width="150" height="30" as="geometry" />
        </mxCell>
        <mxCell id="uY25hScXqDtO3a73gOTt-2" value="role" style="text;strokeColor=none;fillColor=none;align=left;verticalAlign=middle;spacingLeft=4;spacingRight=4;overflow=hidden;points=[[0,0.5],[1,0.5]];portConstraint=eastwest;rotatable=0;whiteSpace=wrap;html=1;" vertex="1" parent="vYdjHVclCOwmGXo7qv9D-1">
          <mxGeometry y="90" width="150" height="30" as="geometry" />
        </mxCell>
        <mxCell id="0aWNcPJadGoUK4btkH90-1" value="&lt;font style=&quot;vertical-align: inherit;&quot;&gt;&lt;font style=&quot;vertical-align: inherit;&quot;&gt;Utilisateur&lt;/font&gt;&lt;/font&gt;" style="swimlane;fontStyle=0;childLayout=stackLayout;horizontal=1;startSize=30;horizontalStack=0;resizeParent=1;resizeParentMax=0;resizeLast=0;collapsible=1;marginBottom=0;whiteSpace=wrap;html=1;" vertex="1" parent="1">
          <mxGeometry x="1010" y="-827" width="150" height="240" as="geometry" />
        </mxCell>
        <mxCell id="0aWNcPJadGoUK4btkH90-2" value="&lt;font style=&quot;vertical-align: inherit;&quot;&gt;&lt;font style=&quot;vertical-align: inherit;&quot;&gt;&lt;font style=&quot;vertical-align: inherit;&quot;&gt;&lt;font style=&quot;vertical-align: inherit;&quot;&gt;&lt;u&gt;id_utilisateur&lt;/u&gt;&lt;/font&gt;&lt;/font&gt;&lt;/font&gt;&lt;/font&gt;" style="text;strokeColor=none;fillColor=none;align=left;verticalAlign=middle;spacingLeft=4;spacingRight=4;overflow=hidden;points=[[0,0.5],[1,0.5]];portConstraint=eastwest;rotatable=0;whiteSpace=wrap;html=1;" vertex="1" parent="0aWNcPJadGoUK4btkH90-1">
          <mxGeometry y="30" width="150" height="30" as="geometry" />
        </mxCell>
        <mxCell id="zwO2DJE7-MWnhaOdCRVx-10" value="&lt;font style=&quot;vertical-align: inherit;&quot;&gt;&lt;font style=&quot;vertical-align: inherit;&quot;&gt;&lt;font style=&quot;vertical-align: inherit;&quot;&gt;&lt;font style=&quot;vertical-align: inherit;&quot;&gt;nom&lt;/font&gt;&lt;/font&gt;&lt;/font&gt;&lt;/font&gt;" style="text;strokeColor=none;fillColor=none;align=left;verticalAlign=middle;spacingLeft=4;spacingRight=4;overflow=hidden;points=[[0,0.5],[1,0.5]];portConstraint=eastwest;rotatable=0;whiteSpace=wrap;html=1;" vertex="1" parent="0aWNcPJadGoUK4btkH90-1">
          <mxGeometry y="60" width="150" height="30" as="geometry" />
        </mxCell>
        <mxCell id="0aWNcPJadGoUK4btkH90-3" value="&lt;font style=&quot;vertical-align: inherit;&quot;&gt;&lt;font style=&quot;vertical-align: inherit;&quot;&gt;prenom&lt;/font&gt;&lt;/font&gt;" style="text;strokeColor=none;fillColor=none;align=left;verticalAlign=middle;spacingLeft=4;spacingRight=4;overflow=hidden;points=[[0,0.5],[1,0.5]];portConstraint=eastwest;rotatable=0;whiteSpace=wrap;html=1;" vertex="1" parent="0aWNcPJadGoUK4btkH90-1">
          <mxGeometry y="90" width="150" height="30" as="geometry" />
        </mxCell>
        <mxCell id="0aWNcPJadGoUK4btkH90-4" value="&lt;font style=&quot;vertical-align: inherit;&quot;&gt;&lt;font style=&quot;vertical-align: inherit;&quot;&gt;email&lt;br&gt;&lt;/font&gt;&lt;/font&gt;" style="text;strokeColor=none;fillColor=none;align=left;verticalAlign=middle;spacingLeft=4;spacingRight=4;overflow=hidden;points=[[0,0.5],[1,0.5]];portConstraint=eastwest;rotatable=0;whiteSpace=wrap;html=1;" vertex="1" parent="0aWNcPJadGoUK4btkH90-1">
          <mxGeometry y="120" width="150" height="30" as="geometry" />
        </mxCell>
        <mxCell id="uY25hScXqDtO3a73gOTt-1" value="statut" style="text;strokeColor=none;fillColor=none;align=left;verticalAlign=middle;spacingLeft=4;spacingRight=4;overflow=hidden;points=[[0,0.5],[1,0.5]];portConstraint=eastwest;rotatable=0;whiteSpace=wrap;html=1;" vertex="1" parent="0aWNcPJadGoUK4btkH90-1">
          <mxGeometry y="150" width="150" height="30" as="geometry" />
        </mxCell>
        <mxCell id="p0FIipzDam_MGdTjeUwP-2" value="login" style="text;strokeColor=none;fillColor=none;align=left;verticalAlign=middle;spacingLeft=4;spacingRight=4;overflow=hidden;points=[[0,0.5],[1,0.5]];portConstraint=eastwest;rotatable=0;whiteSpace=wrap;html=1;" vertex="1" parent="0aWNcPJadGoUK4btkH90-1">
          <mxGeometry y="180" width="150" height="30" as="geometry" />
        </mxCell>
        <mxCell id="p0FIipzDam_MGdTjeUwP-3" value="mdp" style="text;strokeColor=none;fillColor=none;align=left;verticalAlign=middle;spacingLeft=4;spacingRight=4;overflow=hidden;points=[[0,0.5],[1,0.5]];portConstraint=eastwest;rotatable=0;whiteSpace=wrap;html=1;" vertex="1" parent="0aWNcPJadGoUK4btkH90-1">
          <mxGeometry y="210" width="150" height="30" as="geometry" />
        </mxCell>
        <mxCell id="0aWNcPJadGoUK4btkH90-28" value="&lt;font style=&quot;vertical-align: inherit;&quot;&gt;&lt;font style=&quot;vertical-align: inherit;&quot;&gt;Conference&lt;/font&gt;&lt;/font&gt;" style="swimlane;fontStyle=0;childLayout=stackLayout;horizontal=1;startSize=30;horizontalStack=0;resizeParent=1;resizeParentMax=0;resizeLast=0;collapsible=1;marginBottom=0;whiteSpace=wrap;html=1;" vertex="1" parent="1">
          <mxGeometry x="1595" y="-560" width="150" height="240" as="geometry" />
        </mxCell>
        <mxCell id="gXIHA559JMCUfnb30QVl-1" value="&lt;font style=&quot;vertical-align: inherit;&quot;&gt;&lt;font style=&quot;vertical-align: inherit;&quot;&gt;&lt;u&gt;id_conference&lt;/u&gt;&lt;/font&gt;&lt;/font&gt;" style="text;strokeColor=none;fillColor=none;align=left;verticalAlign=middle;spacingLeft=4;spacingRight=4;overflow=hidden;points=[[0,0.5],[1,0.5]];portConstraint=eastwest;rotatable=0;whiteSpace=wrap;html=1;" vertex="1" parent="0aWNcPJadGoUK4btkH90-28">
          <mxGeometry y="30" width="150" height="30" as="geometry" />
        </mxCell>
        <mxCell id="0aWNcPJadGoUK4btkH90-29" value="&lt;font style=&quot;vertical-align: inherit;&quot;&gt;&lt;font style=&quot;vertical-align: inherit;&quot;&gt;&lt;font style=&quot;vertical-align: inherit;&quot;&gt;&lt;font style=&quot;vertical-align: inherit;&quot;&gt;nom_conference&lt;/font&gt;&lt;/font&gt;&lt;/font&gt;&lt;/font&gt;" style="text;strokeColor=none;fillColor=none;align=left;verticalAlign=middle;spacingLeft=4;spacingRight=4;overflow=hidden;points=[[0,0.5],[1,0.5]];portConstraint=eastwest;rotatable=0;whiteSpace=wrap;html=1;" vertex="1" parent="0aWNcPJadGoUK4btkH90-28">
          <mxGeometry y="60" width="150" height="30" as="geometry" />
        </mxCell>
        <mxCell id="0aWNcPJadGoUK4btkH90-30" value="&lt;font style=&quot;vertical-align: inherit;&quot;&gt;&lt;font style=&quot;vertical-align: inherit;&quot;&gt;description&lt;/font&gt;&lt;/font&gt;" style="text;strokeColor=none;fillColor=none;align=left;verticalAlign=middle;spacingLeft=4;spacingRight=4;overflow=hidden;points=[[0,0.5],[1,0.5]];portConstraint=eastwest;rotatable=0;whiteSpace=wrap;html=1;" vertex="1" parent="0aWNcPJadGoUK4btkH90-28">
          <mxGeometry y="90" width="150" height="30" as="geometry" />
        </mxCell>
        <mxCell id="0aWNcPJadGoUK4btkH90-31" value="&lt;font style=&quot;vertical-align: inherit;&quot;&gt;&lt;font style=&quot;vertical-align: inherit;&quot;&gt;date&lt;br&gt;&lt;/font&gt;&lt;/font&gt;" style="text;strokeColor=none;fillColor=none;align=left;verticalAlign=middle;spacingLeft=4;spacingRight=4;overflow=hidden;points=[[0,0.5],[1,0.5]];portConstraint=eastwest;rotatable=0;whiteSpace=wrap;html=1;" vertex="1" parent="0aWNcPJadGoUK4btkH90-28">
          <mxGeometry y="120" width="150" height="30" as="geometry" />
        </mxCell>
        <mxCell id="qOWL5mDbAUGZzgBeI54C-2" value="heure" style="text;strokeColor=none;fillColor=none;align=left;verticalAlign=middle;spacingLeft=4;spacingRight=4;overflow=hidden;points=[[0,0.5],[1,0.5]];portConstraint=eastwest;rotatable=0;whiteSpace=wrap;html=1;" vertex="1" parent="0aWNcPJadGoUK4btkH90-28">
          <mxGeometry y="150" width="150" height="30" as="geometry" />
        </mxCell>
        <mxCell id="qOWL5mDbAUGZzgBeI54C-3" value="duree" style="text;strokeColor=none;fillColor=none;align=left;verticalAlign=middle;spacingLeft=4;spacingRight=4;overflow=hidden;points=[[0,0.5],[1,0.5]];portConstraint=eastwest;rotatable=0;whiteSpace=wrap;html=1;" vertex="1" parent="0aWNcPJadGoUK4btkH90-28">
          <mxGeometry y="180" width="150" height="30" as="geometry" />
        </mxCell>
        <mxCell id="uY25hScXqDtO3a73gOTt-4" value="statut" style="text;strokeColor=none;fillColor=none;align=left;verticalAlign=middle;spacingLeft=4;spacingRight=4;overflow=hidden;points=[[0,0.5],[1,0.5]];portConstraint=eastwest;rotatable=0;whiteSpace=wrap;html=1;" vertex="1" parent="0aWNcPJadGoUK4btkH90-28">
          <mxGeometry y="210" width="150" height="30" as="geometry" />
        </mxCell>
        <mxCell id="uY25hScXqDtO3a73gOTt-11" style="edgeStyle=orthogonalEdgeStyle;rounded=0;orthogonalLoop=1;jettySize=auto;html=1;exitX=0.5;exitY=0;exitDx=0;exitDy=0;entryX=0.5;entryY=1;entryDx=0;entryDy=0;endArrow=classic;endFill=1;" edge="1" parent="1" source="zwO2DJE7-MWnhaOdCRVx-11" target="0aWNcPJadGoUK4btkH90-1">
          <mxGeometry relative="1" as="geometry">
            <mxPoint x="1076.25" y="-610" as="targetPoint" />
          </mxGeometry>
        </mxCell>
        <mxCell id="uY25hScXqDtO3a73gOTt-13" style="edgeStyle=orthogonalEdgeStyle;rounded=0;orthogonalLoop=1;jettySize=auto;html=1;exitX=0;exitY=0.5;exitDx=0;exitDy=0;endArrow=none;endFill=0;entryX=0.5;entryY=0;entryDx=0;entryDy=0;" edge="1" parent="1" source="zwO2DJE7-MWnhaOdCRVx-11" target="vYdjHVclCOwmGXo7qv9D-1">
          <mxGeometry relative="1" as="geometry">
            <mxPoint x="1190" y="-500" as="targetPoint" />
          </mxGeometry>
        </mxCell>
        <mxCell id="p0FIipzDam_MGdTjeUwP-1" style="edgeStyle=orthogonalEdgeStyle;rounded=0;orthogonalLoop=1;jettySize=auto;html=1;exitX=1;exitY=0.5;exitDx=0;exitDy=0;entryX=0.247;entryY=1.062;entryDx=0;entryDy=0;entryPerimeter=0;endArrow=none;endFill=0;" edge="1" parent="1" source="zwO2DJE7-MWnhaOdCRVx-11" target="uY25hScXqDtO3a73gOTt-81">
          <mxGeometry relative="1" as="geometry">
            <Array as="points">
              <mxPoint x="1110" y="-535" />
              <mxPoint x="1110" y="-560" />
              <mxPoint x="1256" y="-560" />
              <mxPoint x="1256" y="-610" />
              <mxPoint x="1437" y="-610" />
            </Array>
          </mxGeometry>
        </mxCell>
        <mxCell id="zwO2DJE7-MWnhaOdCRVx-11" value="" style="rhombus;whiteSpace=wrap;html=1;" vertex="1" parent="1">
          <mxGeometry x="1058.75" y="-560" width="52.5" height="50" as="geometry" />
        </mxCell>
        <mxCell id="qOWL5mDbAUGZzgBeI54C-4" value="&lt;font style=&quot;vertical-align: inherit;&quot;&gt;&lt;font style=&quot;vertical-align: inherit;&quot;&gt;Amphitheatre&lt;/font&gt;&lt;/font&gt;" style="swimlane;fontStyle=0;childLayout=stackLayout;horizontal=1;startSize=30;horizontalStack=0;resizeParent=1;resizeParentMax=0;resizeLast=0;collapsible=1;marginBottom=0;whiteSpace=wrap;html=1;" vertex="1" parent="1">
          <mxGeometry x="1790" y="-710" width="150" height="90" as="geometry" />
        </mxCell>
        <mxCell id="qOWL5mDbAUGZzgBeI54C-5" value="&lt;font style=&quot;vertical-align: inherit;&quot;&gt;&lt;font style=&quot;vertical-align: inherit;&quot;&gt;&lt;font style=&quot;vertical-align: inherit;&quot;&gt;&lt;font style=&quot;vertical-align: inherit;&quot;&gt;&lt;font style=&quot;vertical-align: inherit;&quot;&gt;&lt;font style=&quot;vertical-align: inherit;&quot;&gt;&lt;u&gt;&lt;font style=&quot;vertical-align: inherit;&quot;&gt;&lt;font style=&quot;vertical-align: inherit;&quot;&gt;id_amphitheatre&lt;/font&gt;&lt;/font&gt;&lt;/u&gt;&lt;/font&gt;&lt;/font&gt;&lt;/font&gt;&lt;/font&gt;&lt;/font&gt;&lt;/font&gt;" style="text;strokeColor=none;fillColor=none;align=left;verticalAlign=middle;spacingLeft=4;spacingRight=4;overflow=hidden;points=[[0,0.5],[1,0.5]];portConstraint=eastwest;rotatable=0;whiteSpace=wrap;html=1;" vertex="1" parent="qOWL5mDbAUGZzgBeI54C-4">
          <mxGeometry y="30" width="150" height="30" as="geometry" />
        </mxCell>
        <mxCell id="qOWL5mDbAUGZzgBeI54C-7" value="&lt;font style=&quot;vertical-align: inherit;&quot;&gt;&lt;font style=&quot;vertical-align: inherit;&quot;&gt;nb_places&lt;br&gt;&lt;/font&gt;&lt;/font&gt;" style="text;strokeColor=none;fillColor=none;align=left;verticalAlign=middle;spacingLeft=4;spacingRight=4;overflow=hidden;points=[[0,0.5],[1,0.5]];portConstraint=eastwest;rotatable=0;whiteSpace=wrap;html=1;" vertex="1" parent="qOWL5mDbAUGZzgBeI54C-4">
          <mxGeometry y="60" width="150" height="30" as="geometry" />
        </mxCell>
        <mxCell id="qOWL5mDbAUGZzgBeI54C-15" value="&lt;font style=&quot;vertical-align: inherit;&quot;&gt;&lt;font style=&quot;vertical-align: inherit;&quot;&gt;OffreEmploi&lt;/font&gt;&lt;/font&gt;" style="swimlane;fontStyle=0;childLayout=stackLayout;horizontal=1;startSize=30;horizontalStack=0;resizeParent=1;resizeParentMax=0;resizeLast=0;collapsible=1;marginBottom=0;whiteSpace=wrap;html=1;" vertex="1" parent="1">
          <mxGeometry x="1595" y="-240" width="150" height="150" as="geometry" />
        </mxCell>
        <mxCell id="qOWL5mDbAUGZzgBeI54C-16" value="&lt;font style=&quot;vertical-align: inherit;&quot;&gt;&lt;font style=&quot;vertical-align: inherit;&quot;&gt;&lt;font style=&quot;vertical-align: inherit;&quot;&gt;&lt;font style=&quot;vertical-align: inherit;&quot;&gt;&lt;font style=&quot;vertical-align: inherit;&quot;&gt;&lt;font style=&quot;vertical-align: inherit;&quot;&gt;&lt;u&gt;&lt;font style=&quot;vertical-align: inherit;&quot;&gt;&lt;font style=&quot;vertical-align: inherit;&quot;&gt;id_offre&lt;/font&gt;&lt;/font&gt;&lt;/u&gt;&lt;/font&gt;&lt;/font&gt;&lt;/font&gt;&lt;/font&gt;&lt;/font&gt;&lt;/font&gt;" style="text;strokeColor=none;fillColor=none;align=left;verticalAlign=middle;spacingLeft=4;spacingRight=4;overflow=hidden;points=[[0,0.5],[1,0.5]];portConstraint=eastwest;rotatable=0;whiteSpace=wrap;html=1;" vertex="1" parent="qOWL5mDbAUGZzgBeI54C-15">
          <mxGeometry y="30" width="150" height="30" as="geometry" />
        </mxCell>
        <mxCell id="qOWL5mDbAUGZzgBeI54C-17" value="&lt;font style=&quot;vertical-align: inherit;&quot;&gt;&lt;font style=&quot;vertical-align: inherit;&quot;&gt;titre&lt;br&gt;&lt;/font&gt;&lt;/font&gt;" style="text;strokeColor=none;fillColor=none;align=left;verticalAlign=middle;spacingLeft=4;spacingRight=4;overflow=hidden;points=[[0,0.5],[1,0.5]];portConstraint=eastwest;rotatable=0;whiteSpace=wrap;html=1;" vertex="1" parent="qOWL5mDbAUGZzgBeI54C-15">
          <mxGeometry y="60" width="150" height="30" as="geometry" />
        </mxCell>
        <mxCell id="qOWL5mDbAUGZzgBeI54C-18" value="description" style="text;strokeColor=none;fillColor=none;align=left;verticalAlign=middle;spacingLeft=4;spacingRight=4;overflow=hidden;points=[[0,0.5],[1,0.5]];portConstraint=eastwest;rotatable=0;whiteSpace=wrap;html=1;" vertex="1" parent="qOWL5mDbAUGZzgBeI54C-15">
          <mxGeometry y="90" width="150" height="30" as="geometry" />
        </mxCell>
        <mxCell id="qOWL5mDbAUGZzgBeI54C-19" value="type_contrat" style="text;strokeColor=none;fillColor=none;align=left;verticalAlign=middle;spacingLeft=4;spacingRight=4;overflow=hidden;points=[[0,0.5],[1,0.5]];portConstraint=eastwest;rotatable=0;whiteSpace=wrap;html=1;" vertex="1" parent="qOWL5mDbAUGZzgBeI54C-15">
          <mxGeometry y="120" width="150" height="30" as="geometry" />
        </mxCell>
        <mxCell id="qOWL5mDbAUGZzgBeI54C-21" value="&lt;font style=&quot;vertical-align: inherit;&quot;&gt;&lt;font style=&quot;vertical-align: inherit;&quot;&gt;RendezVous&lt;/font&gt;&lt;/font&gt;" style="swimlane;fontStyle=0;childLayout=stackLayout;horizontal=1;startSize=30;horizontalStack=0;resizeParent=1;resizeParentMax=0;resizeLast=0;collapsible=1;marginBottom=0;whiteSpace=wrap;html=1;" vertex="1" parent="1">
          <mxGeometry x="1010" y="-200" width="150" height="150" as="geometry" />
        </mxCell>
        <mxCell id="qOWL5mDbAUGZzgBeI54C-22" value="&lt;font style=&quot;vertical-align: inherit;&quot;&gt;&lt;font style=&quot;vertical-align: inherit;&quot;&gt;&lt;font style=&quot;vertical-align: inherit;&quot;&gt;&lt;font style=&quot;vertical-align: inherit;&quot;&gt;&lt;font style=&quot;vertical-align: inherit;&quot;&gt;&lt;font style=&quot;vertical-align: inherit;&quot;&gt;&lt;u&gt;&lt;font style=&quot;vertical-align: inherit;&quot;&gt;&lt;font style=&quot;vertical-align: inherit;&quot;&gt;id_rdv&lt;/font&gt;&lt;/font&gt;&lt;/u&gt;&lt;/font&gt;&lt;/font&gt;&lt;/font&gt;&lt;/font&gt;&lt;/font&gt;&lt;/font&gt;" style="text;strokeColor=none;fillColor=none;align=left;verticalAlign=middle;spacingLeft=4;spacingRight=4;overflow=hidden;points=[[0,0.5],[1,0.5]];portConstraint=eastwest;rotatable=0;whiteSpace=wrap;html=1;" vertex="1" parent="qOWL5mDbAUGZzgBeI54C-21">
          <mxGeometry y="30" width="150" height="30" as="geometry" />
        </mxCell>
        <mxCell id="qOWL5mDbAUGZzgBeI54C-23" value="&lt;font style=&quot;vertical-align: inherit;&quot;&gt;&lt;font style=&quot;vertical-align: inherit;&quot;&gt;date&lt;br&gt;&lt;/font&gt;&lt;/font&gt;" style="text;strokeColor=none;fillColor=none;align=left;verticalAlign=middle;spacingLeft=4;spacingRight=4;overflow=hidden;points=[[0,0.5],[1,0.5]];portConstraint=eastwest;rotatable=0;whiteSpace=wrap;html=1;" vertex="1" parent="qOWL5mDbAUGZzgBeI54C-21">
          <mxGeometry y="60" width="150" height="30" as="geometry" />
        </mxCell>
        <mxCell id="qOWL5mDbAUGZzgBeI54C-24" value="heure" style="text;strokeColor=none;fillColor=none;align=left;verticalAlign=middle;spacingLeft=4;spacingRight=4;overflow=hidden;points=[[0,0.5],[1,0.5]];portConstraint=eastwest;rotatable=0;whiteSpace=wrap;html=1;" vertex="1" parent="qOWL5mDbAUGZzgBeI54C-21">
          <mxGeometry y="90" width="150" height="30" as="geometry" />
        </mxCell>
        <mxCell id="qOWL5mDbAUGZzgBeI54C-25" value="statut" style="text;strokeColor=none;fillColor=none;align=left;verticalAlign=middle;spacingLeft=4;spacingRight=4;overflow=hidden;points=[[0,0.5],[1,0.5]];portConstraint=eastwest;rotatable=0;whiteSpace=wrap;html=1;" vertex="1" parent="qOWL5mDbAUGZzgBeI54C-21">
          <mxGeometry y="120" width="150" height="30" as="geometry" />
        </mxCell>
        <mxCell id="uY25hScXqDtO3a73gOTt-19" style="edgeStyle=orthogonalEdgeStyle;rounded=0;orthogonalLoop=1;jettySize=auto;html=1;exitX=0;exitY=0.5;exitDx=0;exitDy=0;entryX=1;entryY=0.5;entryDx=0;entryDy=0;endArrow=none;endFill=0;" edge="1" parent="1" source="uY25hScXqDtO3a73gOTt-15" target="uY25hScXqDtO3a73gOTt-18">
          <mxGeometry relative="1" as="geometry" />
        </mxCell>
        <mxCell id="uY25hScXqDtO3a73gOTt-22" style="edgeStyle=orthogonalEdgeStyle;rounded=0;orthogonalLoop=1;jettySize=auto;html=1;exitX=0.5;exitY=1;exitDx=0;exitDy=0;entryX=0.5;entryY=0;entryDx=0;entryDy=0;endArrow=none;endFill=0;" edge="1" parent="1" source="uY25hScXqDtO3a73gOTt-15" target="uY25hScXqDtO3a73gOTt-21">
          <mxGeometry relative="1" as="geometry" />
        </mxCell>
        <mxCell id="uY25hScXqDtO3a73gOTt-15" value="&lt;font style=&quot;vertical-align: inherit;&quot;&gt;&lt;font style=&quot;vertical-align: inherit;&quot;&gt;Administrateur&lt;/font&gt;&lt;/font&gt;" style="swimlane;fontStyle=0;childLayout=stackLayout;horizontal=1;startSize=30;horizontalStack=0;resizeParent=1;resizeParentMax=0;resizeLast=0;collapsible=1;marginBottom=0;whiteSpace=wrap;html=1;" vertex="1" parent="1">
          <mxGeometry x="1400" y="-710" width="150" height="60" as="geometry">
            <mxRectangle x="1400" y="-710" width="120" height="30" as="alternateBounds" />
          </mxGeometry>
        </mxCell>
        <mxCell id="uY25hScXqDtO3a73gOTt-81" value="&lt;font style=&quot;vertical-align: inherit;&quot;&gt;&lt;font style=&quot;vertical-align: inherit;&quot;&gt;&lt;u&gt;id_administrateur&lt;/u&gt;&lt;/font&gt;&lt;/font&gt;" style="text;strokeColor=none;fillColor=none;align=left;verticalAlign=middle;spacingLeft=4;spacingRight=4;overflow=hidden;points=[[0,0.5],[1,0.5]];portConstraint=eastwest;rotatable=0;whiteSpace=wrap;html=1;" vertex="1" parent="uY25hScXqDtO3a73gOTt-15">
          <mxGeometry y="30" width="150" height="30" as="geometry" />
        </mxCell>
        <mxCell id="uY25hScXqDtO3a73gOTt-20" style="edgeStyle=orthogonalEdgeStyle;rounded=0;orthogonalLoop=1;jettySize=auto;html=1;exitX=0;exitY=0.5;exitDx=0;exitDy=0;entryX=1.003;entryY=0.317;entryDx=0;entryDy=0;entryPerimeter=0;endArrow=none;endFill=0;" edge="1" parent="1" source="uY25hScXqDtO3a73gOTt-18" target="0aWNcPJadGoUK4btkH90-3">
          <mxGeometry relative="1" as="geometry">
            <mxPoint x="1171.25" y="-679.7894736842105" as="targetPoint" />
            <mxPoint x="1231.25" y="-680" as="sourcePoint" />
            <Array as="points">
              <mxPoint x="1160" y="-680" />
            </Array>
          </mxGeometry>
        </mxCell>
        <mxCell id="uY25hScXqDtO3a73gOTt-18" value="valide" style="rounded=1;whiteSpace=wrap;html=1;" vertex="1" parent="1">
          <mxGeometry x="1220" y="-710" width="120" height="60" as="geometry" />
        </mxCell>
        <mxCell id="uY25hScXqDtO3a73gOTt-33" style="edgeStyle=orthogonalEdgeStyle;rounded=0;orthogonalLoop=1;jettySize=auto;html=1;exitX=1;exitY=0.5;exitDx=0;exitDy=0;entryX=0;entryY=0.038;entryDx=0;entryDy=0;entryPerimeter=0;endArrow=none;endFill=0;" edge="1" parent="1" source="uY25hScXqDtO3a73gOTt-21" target="0aWNcPJadGoUK4btkH90-28">
          <mxGeometry relative="1" as="geometry">
            <mxPoint x="1750" y="-549.6470588235294" as="targetPoint" />
          </mxGeometry>
        </mxCell>
        <mxCell id="uY25hScXqDtO3a73gOTt-21" value="valide" style="rounded=1;whiteSpace=wrap;html=1;" vertex="1" parent="1">
          <mxGeometry x="1415" y="-580" width="120" height="60" as="geometry" />
        </mxCell>
        <mxCell id="uY25hScXqDtO3a73gOTt-29" style="edgeStyle=orthogonalEdgeStyle;rounded=0;orthogonalLoop=1;jettySize=auto;html=1;exitX=0;exitY=0.5;exitDx=0;exitDy=0;endArrow=none;endFill=0;entryX=1;entryY=0.5;entryDx=0;entryDy=0;" edge="1" parent="1" source="uY25hScXqDtO3a73gOTt-28" target="zwO2DJE7-MWnhaOdCRVx-1">
          <mxGeometry relative="1" as="geometry">
            <mxPoint x="1280" y="-450" as="targetPoint" />
          </mxGeometry>
        </mxCell>
        <mxCell id="uY25hScXqDtO3a73gOTt-32" style="edgeStyle=orthogonalEdgeStyle;rounded=0;orthogonalLoop=1;jettySize=auto;html=1;exitX=1;exitY=0.5;exitDx=0;exitDy=0;entryX=-0.002;entryY=0.684;entryDx=0;entryDy=0;entryPerimeter=0;endArrow=none;endFill=0;" edge="1" parent="1" source="uY25hScXqDtO3a73gOTt-28" target="0aWNcPJadGoUK4btkH90-30">
          <mxGeometry relative="1" as="geometry">
            <mxPoint x="1750" y="-449.5" as="targetPoint" />
          </mxGeometry>
        </mxCell>
        <mxCell id="uY25hScXqDtO3a73gOTt-28" value="s&#39;inscrit" style="rounded=1;whiteSpace=wrap;html=1;" vertex="1" parent="1">
          <mxGeometry x="1415" y="-480" width="120" height="60" as="geometry" />
        </mxCell>
        <mxCell id="uY25hScXqDtO3a73gOTt-34" style="edgeStyle=orthogonalEdgeStyle;rounded=0;orthogonalLoop=1;jettySize=auto;html=1;exitX=0;exitY=0.5;exitDx=0;exitDy=0;endArrow=none;endFill=0;entryX=-0.001;entryY=0.104;entryDx=0;entryDy=0;entryPerimeter=0;" edge="1" parent="1" source="uY25hScXqDtO3a73gOTt-31" target="qOWL5mDbAUGZzgBeI54C-1">
          <mxGeometry relative="1" as="geometry">
            <mxPoint x="1020" y="-340" as="targetPoint" />
            <Array as="points">
              <mxPoint x="800" y="40" />
              <mxPoint x="800" y="-417" />
            </Array>
          </mxGeometry>
        </mxCell>
        <mxCell id="uY25hScXqDtO3a73gOTt-84" style="edgeStyle=orthogonalEdgeStyle;rounded=0;orthogonalLoop=1;jettySize=auto;html=1;exitX=1;exitY=0.5;exitDx=0;exitDy=0;entryX=0.5;entryY=0.987;entryDx=0;entryDy=0;entryPerimeter=0;endArrow=none;endFill=0;" edge="1" parent="1" source="uY25hScXqDtO3a73gOTt-31" target="qOWL5mDbAUGZzgBeI54C-19">
          <mxGeometry relative="1" as="geometry">
            <Array as="points">
              <mxPoint x="1670" y="40" />
            </Array>
          </mxGeometry>
        </mxCell>
        <mxCell id="uY25hScXqDtO3a73gOTt-31" value="émet" style="rounded=1;whiteSpace=wrap;html=1;" vertex="1" parent="1">
          <mxGeometry x="1415" y="10" width="120" height="60" as="geometry" />
        </mxCell>
        <mxCell id="uY25hScXqDtO3a73gOTt-38" style="edgeStyle=orthogonalEdgeStyle;rounded=0;orthogonalLoop=1;jettySize=auto;html=1;exitX=0;exitY=0.5;exitDx=0;exitDy=0;endArrow=none;endFill=0;entryX=0.68;entryY=1.048;entryDx=0;entryDy=0;entryPerimeter=0;" edge="1" parent="1" source="uY25hScXqDtO3a73gOTt-36" target="zwO2DJE7-MWnhaOdCRVx-14">
          <mxGeometry relative="1" as="geometry">
            <mxPoint x="1260" y="-370" as="targetPoint" />
            <Array as="points">
              <mxPoint x="1360" y="-210" />
              <mxPoint x="1360" y="-320" />
              <mxPoint x="1320" y="-320" />
              <mxPoint x="1320" y="-370" />
              <mxPoint x="1259" y="-370" />
            </Array>
          </mxGeometry>
        </mxCell>
        <mxCell id="uY25hScXqDtO3a73gOTt-39" style="edgeStyle=orthogonalEdgeStyle;rounded=0;orthogonalLoop=1;jettySize=auto;html=1;exitX=1;exitY=0.5;exitDx=0;exitDy=0;entryX=-0.002;entryY=0.158;entryDx=0;entryDy=0;entryPerimeter=0;endArrow=none;endFill=0;" edge="1" parent="1" source="uY25hScXqDtO3a73gOTt-36" target="qOWL5mDbAUGZzgBeI54C-15">
          <mxGeometry relative="1" as="geometry">
            <Array as="points">
              <mxPoint x="1595" y="-210" />
            </Array>
          </mxGeometry>
        </mxCell>
        <mxCell id="uY25hScXqDtO3a73gOTt-36" value="postule" style="rounded=1;whiteSpace=wrap;html=1;" vertex="1" parent="1">
          <mxGeometry x="1415" y="-240" width="120" height="60" as="geometry" />
        </mxCell>
        <mxCell id="uY25hScXqDtO3a73gOTt-40" value="0,N" style="text;html=1;strokeColor=none;fillColor=none;align=center;verticalAlign=middle;whiteSpace=wrap;rounded=0;" vertex="1" parent="1">
          <mxGeometry x="1340" y="-710" width="60" height="30" as="geometry" />
        </mxCell>
        <mxCell id="uY25hScXqDtO3a73gOTt-41" value="1,1" style="text;html=1;strokeColor=none;fillColor=none;align=center;verticalAlign=middle;whiteSpace=wrap;rounded=0;" vertex="1" parent="1">
          <mxGeometry x="1160" y="-710" width="60" height="30" as="geometry" />
        </mxCell>
        <mxCell id="uY25hScXqDtO3a73gOTt-42" value="0,N" style="text;html=1;strokeColor=none;fillColor=none;align=center;verticalAlign=middle;whiteSpace=wrap;rounded=0;" vertex="1" parent="1">
          <mxGeometry x="1475" y="-630" width="60" height="30" as="geometry" />
        </mxCell>
        <mxCell id="uY25hScXqDtO3a73gOTt-43" value="0,1" style="text;html=1;strokeColor=none;fillColor=none;align=center;verticalAlign=middle;whiteSpace=wrap;rounded=0;" vertex="1" parent="1">
          <mxGeometry x="1535" y="-580" width="60" height="30" as="geometry" />
        </mxCell>
        <mxCell id="uY25hScXqDtO3a73gOTt-49" style="edgeStyle=orthogonalEdgeStyle;rounded=0;orthogonalLoop=1;jettySize=auto;html=1;exitX=0;exitY=0.5;exitDx=0;exitDy=0;entryX=1.003;entryY=0.038;entryDx=0;entryDy=0;entryPerimeter=0;endArrow=none;endFill=0;" edge="1" parent="1" source="uY25hScXqDtO3a73gOTt-48" target="0aWNcPJadGoUK4btkH90-28">
          <mxGeometry relative="1" as="geometry">
            <mxPoint x="1770.0000000000002" y="-549.6551724137931" as="targetPoint" />
          </mxGeometry>
        </mxCell>
        <mxCell id="uY25hScXqDtO3a73gOTt-50" style="edgeStyle=orthogonalEdgeStyle;rounded=0;orthogonalLoop=1;jettySize=auto;html=1;exitX=0.5;exitY=0;exitDx=0;exitDy=0;entryX=0.501;entryY=1.02;entryDx=0;entryDy=0;entryPerimeter=0;endArrow=none;endFill=0;" edge="1" parent="1" source="uY25hScXqDtO3a73gOTt-48" target="qOWL5mDbAUGZzgBeI54C-7">
          <mxGeometry relative="1" as="geometry" />
        </mxCell>
        <mxCell id="uY25hScXqDtO3a73gOTt-48" value="lié à" style="rounded=1;whiteSpace=wrap;html=1;" vertex="1" parent="1">
          <mxGeometry x="1805" y="-580" width="120" height="60" as="geometry" />
        </mxCell>
        <mxCell id="uY25hScXqDtO3a73gOTt-51" value="0,N" style="text;html=1;strokeColor=none;fillColor=none;align=center;verticalAlign=middle;whiteSpace=wrap;rounded=0;" vertex="1" parent="1">
          <mxGeometry x="1805" y="-610" width="60" height="30" as="geometry" />
        </mxCell>
        <mxCell id="uY25hScXqDtO3a73gOTt-52" value="1,1" style="text;html=1;strokeColor=none;fillColor=none;align=center;verticalAlign=middle;whiteSpace=wrap;rounded=0;" vertex="1" parent="1">
          <mxGeometry x="1745" y="-580" width="60" height="30" as="geometry" />
        </mxCell>
        <mxCell id="uY25hScXqDtO3a73gOTt-53" value="0,N" style="text;html=1;strokeColor=none;fillColor=none;align=center;verticalAlign=middle;whiteSpace=wrap;rounded=0;" vertex="1" parent="1">
          <mxGeometry x="1355" y="10" width="60" height="30" as="geometry" />
        </mxCell>
        <mxCell id="uY25hScXqDtO3a73gOTt-54" value="1,1" style="text;html=1;strokeColor=none;fillColor=none;align=center;verticalAlign=middle;whiteSpace=wrap;rounded=0;" vertex="1" parent="1">
          <mxGeometry x="1535" y="10" width="60" height="30" as="geometry" />
        </mxCell>
        <mxCell id="uY25hScXqDtO3a73gOTt-55" value="0,N" style="text;html=1;strokeColor=none;fillColor=none;align=center;verticalAlign=middle;whiteSpace=wrap;rounded=0;" vertex="1" parent="1">
          <mxGeometry x="1535" y="-240" width="60" height="30" as="geometry" />
        </mxCell>
        <mxCell id="uY25hScXqDtO3a73gOTt-56" value="0,N" style="text;html=1;strokeColor=none;fillColor=none;align=center;verticalAlign=middle;whiteSpace=wrap;rounded=0;" vertex="1" parent="1">
          <mxGeometry x="1370" y="-240" width="60" height="30" as="geometry" />
        </mxCell>
        <mxCell id="uY25hScXqDtO3a73gOTt-72" style="edgeStyle=orthogonalEdgeStyle;rounded=0;orthogonalLoop=1;jettySize=auto;html=1;exitX=0.5;exitY=0;exitDx=0;exitDy=0;entryX=0.499;entryY=1.016;entryDx=0;entryDy=0;entryPerimeter=0;endArrow=none;endFill=0;" edge="1" parent="1" source="uY25hScXqDtO3a73gOTt-70" target="uY25hScXqDtO3a73gOTt-2">
          <mxGeometry relative="1" as="geometry" />
        </mxCell>
        <mxCell id="uY25hScXqDtO3a73gOTt-73" style="edgeStyle=orthogonalEdgeStyle;rounded=0;orthogonalLoop=1;jettySize=auto;html=1;exitX=0.5;exitY=1;exitDx=0;exitDy=0;entryX=0.018;entryY=0.923;entryDx=0;entryDy=0;entryPerimeter=0;endArrow=none;endFill=0;" edge="1" parent="1" source="uY25hScXqDtO3a73gOTt-70" target="qOWL5mDbAUGZzgBeI54C-22">
          <mxGeometry relative="1" as="geometry" />
        </mxCell>
        <mxCell id="uY25hScXqDtO3a73gOTt-70" value="propose" style="rounded=1;whiteSpace=wrap;html=1;" vertex="1" parent="1">
          <mxGeometry x="885" y="-300" width="120" height="60" as="geometry" />
        </mxCell>
        <mxCell id="uY25hScXqDtO3a73gOTt-74" style="edgeStyle=orthogonalEdgeStyle;rounded=0;orthogonalLoop=1;jettySize=auto;html=1;exitX=0.5;exitY=1;exitDx=0;exitDy=0;entryX=1.004;entryY=0.907;entryDx=0;entryDy=0;entryPerimeter=0;endArrow=none;endFill=0;" edge="1" parent="1" source="uY25hScXqDtO3a73gOTt-71" target="qOWL5mDbAUGZzgBeI54C-22">
          <mxGeometry relative="1" as="geometry" />
        </mxCell>
        <mxCell id="uY25hScXqDtO3a73gOTt-75" style="edgeStyle=orthogonalEdgeStyle;rounded=0;orthogonalLoop=1;jettySize=auto;html=1;exitX=0.5;exitY=0;exitDx=0;exitDy=0;entryX=0.498;entryY=1.028;entryDx=0;entryDy=0;entryPerimeter=0;endArrow=none;endFill=0;" edge="1" parent="1" source="uY25hScXqDtO3a73gOTt-71" target="zwO2DJE7-MWnhaOdCRVx-14">
          <mxGeometry relative="1" as="geometry" />
        </mxCell>
        <mxCell id="uY25hScXqDtO3a73gOTt-71" value="confirme" style="rounded=1;whiteSpace=wrap;html=1;" vertex="1" parent="1">
          <mxGeometry x="1145" y="-300" width="120" height="60" as="geometry" />
        </mxCell>
        <mxCell id="uY25hScXqDtO3a73gOTt-76" value="0,N" style="text;html=1;strokeColor=none;fillColor=none;align=center;verticalAlign=middle;whiteSpace=wrap;rounded=0;" vertex="1" parent="1">
          <mxGeometry x="1145" y="-330" width="60" height="30" as="geometry" />
        </mxCell>
        <mxCell id="uY25hScXqDtO3a73gOTt-77" value="0,1" style="text;html=1;strokeColor=none;fillColor=none;align=center;verticalAlign=middle;whiteSpace=wrap;rounded=0;" vertex="1" parent="1">
          <mxGeometry x="1145" y="-240" width="60" height="30" as="geometry" />
        </mxCell>
        <mxCell id="uY25hScXqDtO3a73gOTt-78" value="1,1" style="text;html=1;strokeColor=none;fillColor=none;align=center;verticalAlign=middle;whiteSpace=wrap;rounded=0;" vertex="1" parent="1">
          <mxGeometry x="945" y="-240" width="60" height="30" as="geometry" />
        </mxCell>
        <mxCell id="uY25hScXqDtO3a73gOTt-79" value="0,N" style="text;html=1;strokeColor=none;fillColor=none;align=center;verticalAlign=middle;whiteSpace=wrap;rounded=0;" vertex="1" parent="1">
          <mxGeometry x="945" y="-330" width="60" height="30" as="geometry" />
        </mxCell>
        <mxCell id="uY25hScXqDtO3a73gOTt-82" value="0,N" style="text;html=1;strokeColor=none;fillColor=none;align=center;verticalAlign=middle;whiteSpace=wrap;rounded=0;" vertex="1" parent="1">
          <mxGeometry x="1355" y="-480" width="60" height="30" as="geometry" />
        </mxCell>
        <mxCell id="uY25hScXqDtO3a73gOTt-83" value="0,N" style="text;html=1;strokeColor=none;fillColor=none;align=center;verticalAlign=middle;whiteSpace=wrap;rounded=0;" vertex="1" parent="1">
          <mxGeometry x="1535" y="-480" width="60" height="30" as="geometry" />
        </mxCell>
        <mxCell id="uY25hScXqDtO3a73gOTt-87" style="edgeStyle=orthogonalEdgeStyle;rounded=0;orthogonalLoop=1;jettySize=auto;html=1;exitX=1;exitY=0.5;exitDx=0;exitDy=0;entryX=-0.006;entryY=0.667;entryDx=0;entryDy=0;entryPerimeter=0;endArrow=none;endFill=0;" edge="1" parent="1" source="uY25hScXqDtO3a73gOTt-85" target="qOWL5mDbAUGZzgBeI54C-19">
          <mxGeometry relative="1" as="geometry" />
        </mxCell>
        <mxCell id="uY25hScXqDtO3a73gOTt-85" value="lié à" style="rounded=1;whiteSpace=wrap;html=1;" vertex="1" parent="1">
          <mxGeometry x="1415" y="-130" width="120" height="60" as="geometry" />
        </mxCell>
        <mxCell id="uY25hScXqDtO3a73gOTt-86" style="edgeStyle=orthogonalEdgeStyle;rounded=0;orthogonalLoop=1;jettySize=auto;html=1;exitX=1;exitY=0.5;exitDx=0;exitDy=0;entryX=0;entryY=0.5;entryDx=0;entryDy=0;endArrow=none;endFill=0;" edge="1" parent="1" source="qOWL5mDbAUGZzgBeI54C-24" target="uY25hScXqDtO3a73gOTt-85">
          <mxGeometry relative="1" as="geometry">
            <Array as="points">
              <mxPoint x="1160" y="-100" />
            </Array>
          </mxGeometry>
        </mxCell>
        <mxCell id="uY25hScXqDtO3a73gOTt-88" value="1,1" style="text;html=1;strokeColor=none;fillColor=none;align=center;verticalAlign=middle;whiteSpace=wrap;rounded=0;" vertex="1" parent="1">
          <mxGeometry x="1355" y="-130" width="60" height="30" as="geometry" />
        </mxCell>
        <mxCell id="uY25hScXqDtO3a73gOTt-89" value="0,N" style="text;html=1;strokeColor=none;fillColor=none;align=center;verticalAlign=middle;whiteSpace=wrap;rounded=0;" vertex="1" parent="1">
          <mxGeometry x="1535" y="-130" width="60" height="30" as="geometry" />
        </mxCell>
        <mxCell id="p0FIipzDam_MGdTjeUwP-7" style="edgeStyle=orthogonalEdgeStyle;rounded=0;orthogonalLoop=1;jettySize=auto;html=1;exitX=0.5;exitY=0;exitDx=0;exitDy=0;entryX=1;entryY=0.5;entryDx=0;entryDy=0;endArrow=none;endFill=0;" edge="1" parent="1" source="p0FIipzDam_MGdTjeUwP-5" target="qOWL5mDbAUGZzgBeI54C-2">
          <mxGeometry relative="1" as="geometry" />
        </mxCell>
        <mxCell id="p0FIipzDam_MGdTjeUwP-5" value="créer" style="rounded=1;whiteSpace=wrap;html=1;" vertex="1" parent="1">
          <mxGeometry x="1805" y="-290" width="120" height="60" as="geometry" />
        </mxCell>
        <mxCell id="p0FIipzDam_MGdTjeUwP-10" style="edgeStyle=orthogonalEdgeStyle;rounded=0;orthogonalLoop=1;jettySize=auto;html=1;exitX=1;exitY=0.5;exitDx=0;exitDy=0;entryX=0.009;entryY=0.087;entryDx=0;entryDy=0;entryPerimeter=0;endArrow=none;endFill=0;" edge="1" parent="1" source="p0FIipzDam_MGdTjeUwP-8" target="uY25hScXqDtO3a73gOTt-4">
          <mxGeometry relative="1" as="geometry">
            <Array as="points">
              <mxPoint x="1596" y="-350" />
            </Array>
          </mxGeometry>
        </mxCell>
        <mxCell id="p0FIipzDam_MGdTjeUwP-8" value="créer" style="rounded=1;whiteSpace=wrap;html=1;" vertex="1" parent="1">
          <mxGeometry x="1415" y="-380" width="120" height="60" as="geometry" />
        </mxCell>
        <mxCell id="p0FIipzDam_MGdTjeUwP-9" style="edgeStyle=orthogonalEdgeStyle;rounded=0;orthogonalLoop=1;jettySize=auto;html=1;exitX=1;exitY=0.5;exitDx=0;exitDy=0;entryX=0;entryY=0.5;entryDx=0;entryDy=0;endArrow=none;endFill=0;" edge="1" parent="1" source="zwO2DJE7-MWnhaOdCRVx-14" target="p0FIipzDam_MGdTjeUwP-8">
          <mxGeometry relative="1" as="geometry" />
        </mxCell>
        <mxCell id="p0FIipzDam_MGdTjeUwP-11" value="0,N" style="text;html=1;strokeColor=none;fillColor=none;align=center;verticalAlign=middle;whiteSpace=wrap;rounded=0;" vertex="1" parent="1">
          <mxGeometry x="1535" y="-380" width="60" height="30" as="geometry" />
        </mxCell>
        <mxCell id="p0FIipzDam_MGdTjeUwP-12" value="0,N" style="text;html=1;strokeColor=none;fillColor=none;align=center;verticalAlign=middle;whiteSpace=wrap;rounded=0;" vertex="1" parent="1">
          <mxGeometry x="1365" y="-380" width="60" height="30" as="geometry" />
        </mxCell>
        <mxCell id="p0FIipzDam_MGdTjeUwP-13" value="1,1" style="text;html=1;strokeColor=none;fillColor=none;align=center;verticalAlign=middle;whiteSpace=wrap;rounded=0;" vertex="1" parent="1">
          <mxGeometry x="1865" y="-320" width="60" height="30" as="geometry" />
        </mxCell>
        <mxCell id="p0FIipzDam_MGdTjeUwP-14" value="0,N" style="text;html=1;strokeColor=none;fillColor=none;align=center;verticalAlign=middle;whiteSpace=wrap;rounded=0;" vertex="1" parent="1">
          <mxGeometry x="1865" y="-230" width="60" height="30" as="geometry" />
        </mxCell>
      </root>
    </mxGraphModel>
  </diagram>
  <diagram id="x8cnbfcr_LsJW86W6R3k" name="Page-2">
    <mxGraphModel grid="1" page="1" gridSize="10" guides="1" tooltips="1" connect="1" arrows="1" fold="1" pageScale="1" pageWidth="1169" pageHeight="827" math="0" shadow="0">
      <root>
        <mxCell id="0" />
        <mxCell id="1" parent="0" />
      </root>
    </mxGraphModel>
  </diagram>
</mxfile>
